
        <svg xmlns="http://www.w3.org/2000/svg" xmlns:xlink="http://www.w3.org/1999/xlink" version="1.1" width="3171.4285714285716" 
        height="1711.537873376118" viewBox="0 0 3171.4285714285716 1711.537873376118">
			
			<g transform="scale(8.571428571428571) translate(10, 10)">
				<defs id="SvgjsDefs7637"></defs><g id="SvgjsG7638" featureKey="DMynUx-0" transform="matrix(1.286443271730519,0,0,1.286443271730519,111.13556850954272,-13.481923672000935)" fill="#ff8200"><defs xmlns="http://www.w3.org/2000/svg"></defs><title xmlns="http://www.w3.org/2000/svg"></title><path xmlns="http://www.w3.org/2000/svg" d="M85.32,62.07A68.22,68.22,0,0,1,79,66.23c-.54.31-1.08.62-1.63.92l-.2.11-.11,0,0,0h0l-.07,0-.1.05c-.14.08-.32.17-.52.26a14,14,0,0,1-1.32.52c-.48.17-1,.31-1.48.45a30.59,30.59,0,0,1-3.14.65c-1.08.18-2.19.31-3.33.41-2.27.2-4.65.28-7.16.32s-5.15.06-7.92.14c-1.38,0-2.8.11-4.25.21l-2.19.18c-.74.07-1.48.16-2.25.27a61,61,0,0,0-9,2,90.87,90.87,0,0,0-8.63,3c-1.39.57-2.76,1.16-4.12,1.77a39.89,39.89,0,0,0,9.58,7.16c2-1,4-2,6-2.83a48.67,48.67,0,0,1,7.14-2.39c.57-.14,1.17-.28,1.77-.4s1.2-.23,1.8-.33c1.2-.21,2.4-.38,3.59-.53,2.38-.31,4.73-.53,7-.79s4.53-.52,6.73-.9c1.09-.2,2.18-.42,3.26-.69a29.78,29.78,0,0,0,3.27-1c.56-.2,1.12-.43,1.7-.69l.89-.44c.3-.15.62-.33,1-.53a11.4,11.4,0,0,0,1.08-.7c.1-.06.2-.15.31-.22L77,72.1l.09-.07.07-.06.1-.09.19-.18L79,70.22q3.14-3,6.22-6.08c1-1.07,2.09-2.14,3.13-3.23.16-.52.3-1,.43-1.57Q87.07,60.78,85.32,62.07Z" style="fill-rule: evenodd;"></path><path xmlns="http://www.w3.org/2000/svg" d="M80.24,49.11l-1.68-.06-.42,0-.21,0h-.16c-.19,0-.42,0-.65,0-1,0-2-.13-3.14-.26-2.21-.26-4.54-.66-6.94-1.12s-4.87-1-7.43-1.54-5.19-1.11-7.9-1.64c-1.36-.26-2.73-.52-4.13-.76l-2.12-.35-1.06-.17L43.3,43c-2.94-.4-5.92-.63-8.95-.74s-6.09-.09-9.19,0-6.25.33-9.43.61c-1.75.15-3.51.33-5.27.51a40.83,40.83,0,0,0-.46,6.1,41.64,41.64,0,0,0,.31,5c2.25-.38,4.44-.75,6.61-1.08,3-.48,6-.9,8.93-1.24s5.77-.59,8.56-.72,5.52-.19,8.15-.08l1,0,1,0,2,.12,3.92.31c2.59.23,5.13.49,7.62.73s4.93.48,7.33.65,4.74.28,7.12.25c1.2,0,2.39-.06,3.72-.21.34,0,.68-.08,1.06-.15l.14,0h.07l.06,0,.21-.06.43-.11,1.7-.46c2.26-.6,4.46-1.21,6.61-1.8l3.47-1v-.24c0-.24,0-.48,0-.72-1.06.11-2.15.19-3.24.24C84.63,49.15,82.47,49.17,80.24,49.11Z" style="fill-rule: evenodd;"></path><path xmlns="http://www.w3.org/2000/svg" d="M79.08,74.93c-.5.46-1,.91-1.52,1.35l-.19.17-.08.07,0,0-.07.06-.09.08-.46.37-.58.4-.63.4c-.44.26-.9.51-1.37.75-.94.47-1.94.89-3,1.28s-2.08.73-3.17,1c-2.17.64-4.46,1.18-6.86,1.71s-4.92,1-7.51,1.58c-1.29.28-2.61.56-3.93.87-.67.15-1.34.3-2,.47l-1,.24-1,.27c-2.11.56-4.21,1.22-6.28,2a40.05,40.05,0,0,0,45.6-19Q82,72.23,79.08,74.93Z" style="fill-rule: evenodd;"></path><path xmlns="http://www.w3.org/2000/svg" d="M80.29,26.58l.77.66.78.61,1.56,1.24c.63.5,1.25,1,1.87,1.55A40.08,40.08,0,0,0,58.79,10.48,218.06,218.06,0,0,1,77.17,24Z" style="fill-rule: evenodd;"></path><path xmlns="http://www.w3.org/2000/svg" d="M82.65,33.53l-1.57-1.14c-.26-.18-.52-.38-.79-.56l-.8-.51c-1.07-.68-2.15-1.36-3.24-2A266.39,266.39,0,0,0,48.52,14.44q-4.16-1.92-8.41-3.69A39.84,39.84,0,0,0,27,16.82Q37.06,19.4,46.5,22.47a301,301,0,0,1,29,11.08c1.12.5,2.23,1,3.33,1.51l.83.38.82.32c.56.21,1.1.43,1.65.66q3.27,1.32,6.39,2.84l.19.1c-.16-.63-.34-1.24-.53-1.85Q85.44,35.56,82.65,33.53Z" style="fill-rule: evenodd;"></path><path xmlns="http://www.w3.org/2000/svg" d="M87.76,43.12c-2.08-.66-4.21-1.39-6.38-2.17l-1.64-.59-.82-.3-.81-.24-3.37-1c-4.56-1.37-9.33-2.81-14.28-4.27-2.48-.72-5-1.46-7.58-2.19L49,31.26l-2-.54-1-.27-1-.26c-1.37-.32-2.72-.63-4.09-.93l-4.13-.89q-4.15-.87-8.45-1.69c-3.21-.61-6.47-1.21-9.78-1.77a39.76,39.76,0,0,0-5.79,10.22q7.17.66,14,1.38c3,.31,5.86.63,8.72,1l4.24.5c1.39.16,2.78.33,4.12.51l1,.13,1,.15,2,.32,4,.65L59.44,41c5.07.83,9.93,1.62,14.6,2.32l3.48.5.88.12c.28,0,.57,0,.85.05l1.69.1q3.36.21,6.56.52l2.23.23-.15-1.15C89,43.51,88.37,43.32,87.76,43.12Z" style="fill-rule: evenodd;"></path><path xmlns="http://www.w3.org/2000/svg" d="M85.94,55.23a63.91,63.91,0,0,1-6.49,2.12l-1.68.43-.42.1-.11,0,0,0-.06,0h-.06l-.58.15c-.44.09-.92.17-1.43.24s-1,.12-1.56.16c-1.08.09-2.19.12-3.32.13s-2.31,0-3.48-.08c-2.38-.11-4.85-.31-7.41-.54s-5.23-.5-8-.72c-1.39-.12-2.79-.22-4.22-.31-.71,0-1.43-.09-2.16-.12l-1.09,0-1.13,0a75.12,75.12,0,0,0-9.21.4c-3.09.32-6.18.82-9.28,1.44S18,60,15,60.82l-3.08.85a40.21,40.21,0,0,0,4.88,10.11l1.76-.65c2.75-1,5.48-1.9,8.19-2.7s5.42-1.47,8.08-2a66.5,66.5,0,0,1,7.81-1.08l.95-.06,1,0c.65,0,1.3-.06,1.95-.09,1.29,0,2.57-.08,3.84-.1,2.54,0,5,0,7.45-.08s4.79-.08,7.12-.22c1.17-.07,2.32-.16,3.46-.29s2.3-.3,3.47-.52c.59-.12,1.18-.25,1.79-.4s1.23-.35,1.92-.59c.34-.12.7-.26,1.09-.43l.15-.07.16-.07.15-.07.11-.06.42-.24,1.66-1c2.21-1.3,4.38-2.61,6.5-3.95q2-1.24,3.91-2.51l.12-1C88.53,54.17,87.25,54.72,85.94,55.23Z" style="fill-rule: evenodd;"></path></g><g id="SvgjsG7639" featureKey="xgcenu-0" transform="matrix(2.1459023897693923,0,0,2.1459023897693923,-2.545661577886959,108.39789784225368)" fill="#ffffff"><path d="M6.61 6.441000000000001 c2.8136 0 4.661 2.5424 4.661 4.6271 c0 2.2373 -1.8475 4.661 -4.661 4.661 l-3 0 l0 3.9322 c0 0.20339 -0.13559 0.33881 -0.32203 0.33881 l-1.7966 0 c-0.16949 0 -0.30508 -0.13543 -0.30508 -0.33881 l0 -12.898 c0 -0.16949 0.13559 -0.32203 0.32203 -0.32203 l5.1017 0 z M6.3558 13.39 c1.5932 0 2.4915 -1.1697 2.4915 -2.3222 c0 -1.1354 -0.89831 -2.288 -2.4915 -2.288 l-2.7458 0 l0 4.6102 l2.7458 0 z M19.42376101694915 16.5934 c0.74576 0 1.2375 -0.40695 1.2375 -1.2205 c0 -1.9831 -1.5593 -3.8814 -4.0678 -3.8814 c-2.3729 0 -4.2203 1.8475 -4.2203 4.3051 c0 2.5763 1.949 4.288 4.3219 4.288 c1.5085 0 2.7119 -0.52542 3.4068 -1.5085 c0.11864 -0.15254 0.084746 -0.27119 -0.050847 -0.44068 l-0.38983 -0.5422 c-0.16949 -0.22034 -0.32203 -0.18644 -0.52542 -0.084746 c-0.45763 0.25424 -1.339 0.52542 -2.1695 0.52542 c-1.0169 0 -1.9322 -0.49153 -2.1356 -1.4405 l4.5932 0 z M14.847461016949152 14.7966 c0.084746 -0.54237 0.72881 -1.1695 1.6949 -1.1695 c0.98305 0 1.5932 0.61017 1.678 1.1695 l-3.3729 0 z M29.491386440677964 6.441000000000001 c0.49153 0 0.83051 0.32186 0.83051 0.77949 l0 12.458 c0 0.16949 -0.15254 0.32186 -0.32203 0.32186 l-0.88136 0 c-0.32203 0 -0.79661 -0.20322 -1.0169 -0.5422 c-0.54237 0.37288 -1.2542 0.66085 -2.1356 0.66085 c-2.3898 0 -4.0169 -1.932 -4.0169 -4.4236 c0 -2.5254 1.9492 -4.1525 3.9153 -4.1525 c0.89831 0 1.5763 0.25441 2.1186 0.57644 l0 -4.0339 c0 -0.61017 -0.11864 -0.89831 -0.18644 -1.2203 c-0.050847 -0.22034 0.033898 -0.42373 0.20339 -0.42373 l1.4915 0 z M24.254086440677966 15.6949 c0 1.4576 0.94932 2.2712 2.0847 2.2712 c0.66102 0 1.2032 -0.18644 1.6441 -0.40678 l0 -3.3051 c-0.54237 -0.32203 -1.1356 -0.54237 -1.7797 -0.54237 c-0.83051 0 -1.9492 0.52542 -1.9492 1.9831 z M39.79658305084746 19.57644 c-0.25441 -1.661 -0.27153 -3.1529 -0.20373 -4.7631 c0.08458 -2.0168 -1.0678 -3.3049 -3.1356 -3.3049 c-1.3729 0 -2.8136 0.38983 -3.6441 0.84746 c-0.16933 0.10186 -0.30492 0.28831 -0.22017 0.4578 l0.54237 1.2881 c0.084746 0.18644 0.22034 0.25424 0.47458 0.15254 c1.0169 -0.44068 1.8644 -0.69492 2.678 -0.69492 c0.66102 0 1.0678 0.13559 1.051 0.79661 c-2.7458 0.47458 -5.2373 1.0169 -5.2373 3.339 c0 1.5424 1.1017 2.3897 2.8475 2.3897 c1.4407 0 2.0847 -0.42356 2.6102 -0.9322 c0.11864 0.50864 0.32203 0.84746 0.74576 0.84746 l1.2712 0 c0.18644 0 0.25424 -0.22017 0.22034 -0.42356 z M35.37258305084745 18.2541 c-0.52542 0 -0.88136 -0.15254 -0.88136 -0.59322 c0 -0.76271 1.6102 -1.1017 2.8136 -1.3559 c-0.016949 0.37288 -0.016949 0.94915 0 1.2712 c-0.50847 0.42356 -1.322 0.67797 -1.9322 0.67797 z M47.101713559322036 20.033732 c2.1356 0.25441 3.4914 0.77966 3.4575 2.7288 c0 1.9153 -1.661 3.2373 -4.8644 3.2373 c-2.3559 0 -3.9659 -0.98305 -3.9659 -2.6949 c0 -0.9322 0.55915 -1.5932 1.8303 -1.7966 c-1.0678 -0.20339 -2.2712 -0.89831 -2.2881 -2.0507 c-0.016784 -1.0169 0.74593 -1.7288 2.1866 -1.5764 c-0.64407 -0.27119 -1.4407 -1.339 -1.4576 -2.4915 c-0.033898 -2.2034 1.6441 -3.8644 3.8136 -3.8644 c1.2881 0 1.8475 0.32203 3.9153 0.25424 c0.18644 0 0.33881 0.11864 0.32203 0.32203 l-0.084746 1.0508 c-0.050847 0.18644 -0.52542 0.20339 -0.79661 0.27119 c0.38983 0.57627 0.57627 1.1698 0.57627 1.9664 c0 2.2373 -1.7627 3.7288 -3.7627 3.6441 c-0.67797 -0.033898 -1.1695 -0.15254 -1.5424 -0.23712 c-0.59322 -0.13559 -0.89831 0.016784 -0.89831 0.33881 c0.016949 0.30508 0.45763 0.49153 1.1525 0.57627 c1.0508 0.15254 1.8136 0.23712 2.4068 0.32169 z M45.881213559322035 13.7288 c-0.88136 0 -1.5932 0.71186 -1.5932 1.5763 c0 0.81356 0.71186 1.5424 1.5932 1.5424 c0.91525 0 1.5763 -0.72881 1.5763 -1.5424 c0 -0.86441 -0.67797 -1.5763 -1.5763 -1.5763 z M45.93201355932204 23.8641 c1.1188 0 2.1186 -0.25441 2.1186 -1.0002 c0 -0.38983 -0.35593 -0.61017 -0.94915 -0.72881 c-0.57627 -0.11864 -1.339 -0.22034 -2.0339 -0.30492 c-0.59322 -0.067797 -1 0.37288 -1 0.9661 c0 0.84746 0.74576 1.0678 1.8644 1.0678 z M56.0845966101695 20.11864 c2.3729 0 4.339 -1.8642 4.339 -4.3049 c0 -2.4746 -1.9661 -4.322 -4.339 -4.322 s-4.339 1.8475 -4.339 4.322 c0 2.4407 1.9661 4.3049 4.339 4.3049 z M56.0845966101695 17.9493 c-1.2034 0 -2.0847 -0.98305 -2.0847 -2.1186 c0 -1.1695 0.88136 -2.1525 2.0847 -2.1525 s2.0847 0.98305 2.0847 2.1525 c0 1.1356 -0.88136 2.1186 -2.0847 2.1186 z M67.47459491525424 20.033732 c2.1356 0.25441 3.4914 0.77966 3.4575 2.7288 c0 1.9153 -1.661 3.2373 -4.8644 3.2373 c-2.3559 0 -3.9659 -0.98305 -3.9659 -2.6949 c0 -0.9322 0.55915 -1.5932 1.8303 -1.7966 c-1.0678 -0.20339 -2.2712 -0.89831 -2.2881 -2.0507 c-0.016784 -1.0169 0.74593 -1.7288 2.1866 -1.5764 c-0.64407 -0.27119 -1.4407 -1.339 -1.4576 -2.4915 c-0.033898 -2.2034 1.6441 -3.8644 3.8136 -3.8644 c1.2881 0 1.8475 0.32203 3.9153 0.25424 c0.18644 0 0.33881 0.11864 0.32203 0.32203 l-0.084746 1.0508 c-0.050847 0.18644 -0.52542 0.20339 -0.79661 0.27119 c0.38983 0.57627 0.57627 1.1698 0.57627 1.9664 c0 2.2373 -1.7627 3.7288 -3.7627 3.6441 c-0.67797 -0.033898 -1.1695 -0.15254 -1.5424 -0.23712 c-0.59322 -0.13559 -0.89831 0.016784 -0.89831 0.33881 c0.016949 0.30508 0.45763 0.49153 1.1525 0.57627 c1.0508 0.15254 1.8136 0.23712 2.4068 0.32169 z M66.25409491525424 13.7288 c-0.88136 0 -1.5932 0.71186 -1.5932 1.5763 c0 0.81356 0.71186 1.5424 1.5932 1.5424 c0.91525 0 1.5763 -0.72881 1.5763 -1.5424 c0 -0.86441 -0.67797 -1.5763 -1.5763 -1.5763 z M66.30489491525424 23.8641 c1.1188 0 2.1186 -0.25441 2.1186 -1.0002 c0 -0.38983 -0.35593 -0.61017 -0.94915 -0.72881 c-0.57627 -0.11864 -1.339 -0.22034 -2.0339 -0.30492 c-0.59322 -0.067797 -1 0.37288 -1 0.9661 c0 0.84746 0.74576 1.0678 1.8644 1.0678 z M80.2881779661017 11.6102 c0.18644 0 0.30525 0.15304 0.30525 0.32253 l0 7.7456 c0 0.16949 -0.11864 0.32186 -0.30508 0.32186 l-1.322 0 c-0.28814 0 -0.55932 -0.35576 -0.66102 -0.69475 c-0.59322 0.42373 -1.3729 0.79627 -2.3559 0.79627 c-1.7288 0 -3.5254 -1.1524 -3.5254 -3.2541 l0 -3.7119 c0 -0.47441 -0.050847 -0.77966 -0.11864 -1.1017 c-0.050847 -0.22034 0.033898 -0.42373 0.20339 -0.42373 l1.4237 0 c0.52542 0 0.83051 0.37288 0.83051 0.84746 l0 4.2202 c0 0.94915 0.74559 1.339 1.5422 1.339 c0.72881 0 1.3898 -0.40678 1.9661 -0.98305 l0 -5.1017 c0 -0.16949 0.13559 -0.32203 0.32203 -0.32203 l1.6949 0 z M89.16952372881356 16.5934 c0.74576 0 1.2375 -0.40695 1.2375 -1.2205 c0 -1.9831 -1.5593 -3.8814 -4.0678 -3.8814 c-2.3729 0 -4.2203 1.8475 -4.2203 4.3051 c0 2.5763 1.949 4.288 4.3219 4.288 c1.5085 0 2.7119 -0.52542 3.4068 -1.5085 c0.11864 -0.15254 0.084746 -0.27119 -0.050847 -0.44068 l-0.38983 -0.5422 c-0.16949 -0.22034 -0.32203 -0.18644 -0.52542 -0.084746 c-0.45763 0.25424 -1.339 0.52542 -2.1695 0.52542 c-1.0169 0 -1.9322 -0.49153 -2.1356 -1.4405 l4.5932 0 z M84.59322372881357 14.7966 c0.084746 -0.54237 0.72881 -1.1695 1.6949 -1.1695 c0.98305 0 1.5932 0.61017 1.678 1.1695 l-3.3729 0 z M96.67796932203392 17.6442 l0.96576 -1.1188 c0.20339 -0.23746 0.45763 -0.23746 0.64407 -0.10186 c0.55932 0.47458 1.5593 1.3729 2.8136 1.3729 c1.2203 0 2.2712 -0.4578 2.2712 -1.5086 c0 -1.1017 -1.1356 -1.4237 -2.3051 -1.8983 c-2.4237 -1 -4.1864 -2.0339 -4.1864 -4.2373 c0 -1.7288 1.2712 -3.8136 4.339 -3.8136 c2.0847 0 3.5934 1.1866 4.0341 1.6273 c0.18644 0.18644 0.28814 0.42373 0.11864 0.62712 l-0.84746 1.1186 c-0.16966 0.22034 -0.40678 0.32203 -0.67797 0.13559 c-0.54237 -0.42373 -1.4237 -1.2034 -2.6102 -1.2034 c-1.2034 0 -1.9492 0.69492 -1.9492 1.5085 c0 0.89831 0.77966 1.339 2.0508 1.8475 c2.2203 0.93254 4.4407 1.9325 4.4407 4.3224 c0 1.9831 -1.9659 3.7964 -4.6439 3.7964 c-2.4237 0 -3.9322 -1.5422 -4.3559 -1.949 c-0.15254 -0.13559 -0.30508 -0.32203 -0.10169 -0.52542 z M115.42359661016951 11.6102 c0.23729 0 0.37271 0.16966 0.25407 0.38983 l-3.2542 6.678 c-1.7797 3.6947 -3.2034 5.7456 -3.8983 6.3897 c-0.20339 0.15254 -0.42373 0.084746 -0.64407 -0.13559 l-0.9322 -0.9322 c-0.22034 -0.22034 -0.18644 -0.42373 0.016949 -0.67797 c0.98305 -1.1017 2.1525 -2.8475 3.0339 -4.8305 l-3.4576 -6.4915 c-0.10153 -0.22017 0 -0.38966 0.23746 -0.38966 l1.8644 0 c0.20339 0 0.30508 0.084746 0.38983 0.23729 l2.1525 4.3898 l2.0168 -4.3898 c0.084746 -0.15254 0.20339 -0.23729 0.39 -0.23729 l1.8305 0 z M116.96593237288137 18.712 l0.72915 -1.1524 c0.13559 -0.23729 0.27119 -0.30508 0.47458 -0.20339 c0 0.016949 1.0169 0.52542 2 0.52542 c0.61017 0 0.86441 -0.18644 0.86441 -0.45763 c0 -0.33898 -0.35593 -0.45763 -1.4747 -0.74576 c-1.5254 -0.40678 -2.5763 -1.322 -2.5763 -2.6102 s1.1356 -2.5593 3.2203 -2.5593 c1.2542 0 1.9661 0.33898 2.7627 0.77966 c0.20339 0.11864 0.30508 0.32203 0.18644 0.49153 l-0.79695 1.2202 c-0.11864 0.16966 -0.28814 0.23746 -0.45763 0.18661 c-0.25424 -0.11864 -1 -0.44068 -1.6949 -0.44068 c-0.54237 0 -0.77983 0.20339 -0.77983 0.40678 c0 0.27119 0.4578 0.42373 1.2375 0.62712 c1.5085 0.40678 3 1.2034 3 2.7288 c0 1.4237 -1.4237 2.6098 -3.4915 2.6098 c-1.3898 0 -2.678 -0.6778 -3.1015 -1.0168 c-0.11864 -0.084746 -0.18644 -0.27119 -0.10169 -0.38983 z M130.50829491525425 19.42373 c0.033898 0.13559 -0.050681 0.23763 -0.16933 0.33932 c-0.27119 0.20339 -0.9322 0.32186 -1.5424 0.32186 c-1.8644 0 -2.7288 -0.84729 -2.7288 -3.1185 l0 -3.1017 l-0.96594 0 c-0.16966 0 -0.3222 -0.13559 -0.3222 -0.3222 l0 -0.33898 c0 -0.16949 0.033898 -0.28814 0.13559 -0.40678 c0.94915 -1.0678 1.9831 -2.1866 2.8814 -3.6273 c0.084746 -0.13559 0.15254 -0.20339 0.23729 -0.20339 l0.16949 0 c0.15254 0 0.22034 0.084746 0.22034 0.25424 l0 2.3898 l1.5085 0 c0.18644 0 0.35593 0.15254 0.35593 0.33898 l0 1.5764 c0 0.18644 -0.16949 0.33898 -0.35593 0.33898 l-1.2034 0 c-0.13559 0 -0.25424 -0.016949 -0.32203 -0.050847 l0 2.9831 c0 0.69475 0.16933 1.0846 0.83034 1.0846 c0.22034 0 0.42373 -0.033898 0.59322 -0.067797 c0.22034 -0.050847 0.35593 0.084746 0.40678 0.30508 z M138.83054067796613 16.5934 c0.74576 0 1.2375 -0.40695 1.2375 -1.2205 c0 -1.9831 -1.5593 -3.8814 -4.0678 -3.8814 c-2.3729 0 -4.2203 1.8475 -4.2203 4.3051 c0 2.5763 1.949 4.288 4.3219 4.288 c1.5085 0 2.7119 -0.52542 3.4068 -1.5085 c0.11864 -0.15254 0.084746 -0.27119 -0.050847 -0.44068 l-0.38983 -0.5422 c-0.16949 -0.22034 -0.32203 -0.18644 -0.52542 -0.084746 c-0.45763 0.25424 -1.339 0.52542 -2.1695 0.52542 c-1.0169 0 -1.9322 -0.49153 -2.1356 -1.4405 l4.5932 0 z M134.25424067796612 14.7966 c0.084746 -0.54237 0.72881 -1.1695 1.6949 -1.1695 c0.98305 0 1.5932 0.61017 1.678 1.1695 l-3.3729 0 z M155.91496610169492 19.57644 c0.050847 0.22034 -0.033898 0.42373 -0.20339 0.42373 l-1.4237 0 c-0.52542 0 -0.83051 -0.37288 -0.83051 -0.84746 l0 -4.2202 c0 -0.94915 -0.74576 -1.339 -1.5424 -1.339 c-0.74576 0 -1.3898 0.42356 -1.9661 0.98288 l0 0.18644 l0 3.7119 c0.016949 0.47458 0.067797 0.79661 0.13559 1.1017 c0.033898 0.22034 -0.033898 0.42356 -0.20356 0.42356 l-1.4236 0 c-0.54237 0 -0.84746 -0.37288 -0.84746 -0.84746 l0 -4.2202 c0 -0.94915 -0.72881 -1.339 -1.5254 -1.339 c-0.74559 0 -1.3897 0.40661 -1.9659 0.98288 l0 5.1017 c0 0.16949 -0.15254 0.32186 -0.32203 0.32186 l-1.712 0 c-0.16949 0 -0.30508 -0.15238 -0.30508 -0.32186 l0 -7.7456 c0 -0.16949 0.13559 -0.32203 0.30508 -0.32203 l1.1697 0 c0.42373 0 0.71169 0.35593 0.81339 0.71186 c0.61017 -0.44068 1.3898 -0.81356 2.3559 -0.81356 c1.1017 0 2.2203 0.45763 2.8983 1.322 l0 -0.033898 c0.64407 -0.57627 1.6102 -1.2881 2.9492 -1.2881 c1.7288 0 3.5085 1.1525 3.5085 3.2542 l0 3.7119 c0.016949 0.47458 0.067797 0.79661 0.13559 1.1017 z M157.59305101694915 18.712 l0.72915 -1.1524 c0.13559 -0.23729 0.27119 -0.30508 0.47458 -0.20339 c0 0.016949 1.0169 0.52542 2 0.52542 c0.61017 0 0.86441 -0.18644 0.86441 -0.45763 c0 -0.33898 -0.35593 -0.45763 -1.4747 -0.74576 c-1.5254 -0.40678 -2.5763 -1.322 -2.5763 -2.6102 s1.1356 -2.5593 3.2203 -2.5593 c1.2542 0 1.9661 0.33898 2.7627 0.77966 c0.20339 0.11864 0.30508 0.32203 0.18644 0.49153 l-0.79695 1.2202 c-0.11864 0.16966 -0.28814 0.23746 -0.45763 0.18661 c-0.25424 -0.11864 -1 -0.44068 -1.6949 -0.44068 c-0.54237 0 -0.77983 0.20339 -0.77983 0.40678 c0 0.27119 0.4578 0.42373 1.2375 0.62712 c1.5085 0.40678 3 1.2034 3 2.7288 c0 1.4237 -1.4237 2.6098 -3.4915 2.6098 c-1.3898 0 -2.678 -0.6778 -3.1015 -1.0168 c-0.11864 -0.084746 -0.18644 -0.27119 -0.10169 -0.38983 z"></path></g><g id="SvgjsG7640" featureKey="jZLKOX-0" transform="matrix(0.34783098785907707,0,0,0.34783098785907707,6.728257289523206,172.62088457868185)" fill="#ff8200"><path d="M0.78125 4.257999999999999 l9.4434 0 l0 3.1445 l-6.2891 0 l0 3.1543 l4.7168 0 l0 3.1445 l-4.7168 0 l0 3.1445 l6.2891 0 l0 3.1543 l-6.2891 0 l-3.1543 0 l0 -15.742 z M28.603515625 3.965 l7.6758 10.527 l7.6758 -10.527 l0 16.035 l-3.1543 0 l0 -6.4941 l-4.5215 6.2402 l-4.5215 -6.2402 l0 6.4941 l-3.1543 0 l0 -16.035 z M62.431640625 20 l0 -4.7266 l0 -5.5078 l0 -5.5078 l3.1543 0 l2.3535 0 c1.5137 0 2.8125 0.53711 3.8965 1.6211 s1.6211 2.3828 1.6211 3.8965 s-0.53711 2.8125 -1.6211 3.8867 s-2.3828 1.6113 -3.8965 1.6113 l-2.3535 0 l0 4.7266 l-3.1543 0 z M65.585890625 12.1289 l2.3535 0.0097656 c0.6543 0 1.2109 -0.23438 1.6699 -0.69336 s0.69336 -1.0156 0.69336 -1.6699 c0 -0.64453 -0.23438 -1.2012 -0.69336 -1.6699 s-1.0156 -0.70313 -1.6699 -0.70313 l-2.3535 0 l0 2.3633 l0 2.3633 z M99.29683125 4.18 c2.1875 0 4.0625 0.78125 5.625 2.3438 s2.3438 3.4375 2.3438 5.625 s-0.78125 4.0625 -2.3438 5.6152 s-3.4375 2.334 -5.625 2.334 s-4.0625 -0.78125 -5.6152 -2.334 s-2.334 -3.4277 -2.334 -5.6152 s0.78125 -4.0625 2.334 -5.625 s3.4277 -2.3438 5.6152 -2.3438 z M99.29683125 7.353999999999999 c-1.3184 0 -2.4414 0.46875 -3.3691 1.4063 s-1.3965 2.0605 -1.3965 3.3691 c0 1.3184 0.46875 2.4414 1.3965 3.3691 s2.0508 1.3965 3.3691 1.3965 c1.3086 0 2.4316 -0.46875 3.3691 -1.3965 s1.4063 -2.0508 1.4063 -3.3691 c0 -1.3086 -0.46875 -2.4316 -1.4063 -3.3691 s-2.0605 -1.4063 -3.3691 -1.4063 z M123.7890675 4.257999999999999 l3.3887 0 l2.9004 7.4219 l2.9004 -7.4219 l2.9004 7.4219 l2.8906 -7.4219 l3.3984 0 l-6.2891 16.035 l-2.9297 -7.8027 l-2.8711 7.8027 z M160.25390625 4.257999999999999 l9.4434 0 l0 3.1445 l-6.2891 0 l0 3.1543 l4.7168 0 l0 3.1445 l-4.7168 0 l0 3.1445 l6.2891 0 l0 3.1543 l-6.2891 0 l-3.1543 0 l0 -15.742 z M188.076171875 20 l-0.0097656 -15.762 l5.1172 0 c1.5137 0 3.0078 0.52734 4.0918 1.6113 s1.5234 2.0996 1.5234 3.6133 l0 0.48828 c0 1.1719 -0.33203 2.0313 -0.99609 2.9688 s-1.2207 1.2109 -2.2559 1.6016 l3.5547 5.4785 l-3.8477 0 l-4.0234 -6.1523 l0 6.1523 l-3.1543 0 z M191.220721875 11.8164 l2.2559 0.0097656 c0.6543 0 0.98633 -0.16602 1.4453 -0.625 s0.625 -0.98633 0.625 -1.6406 c0 -0.64453 -0.16602 -1.0742 -0.625 -1.543 s-1.2793 -0.63477 -1.9336 -0.63477 l-1.7676 0 l0 4.4336 z M217.48046875 20 l0 -15.742 l3.1543 0 l0 15.742 l-3.1543 0 z M239.111328125 3.965 l9.4434 8.9941 l0 -8.7012 l3.1543 0 l0 16.035 l-9.4434 -9.0039 l0 8.7109 l-3.1543 0 l0 -16.035 z M277.744096875 4.18 l0.0097656 0.029297 c1.0938 0 2.1191 0.20508 3.0859 0.625 s1.8164 0.98633 2.5488 1.6992 l-2.2461 2.2461 c-0.94727 -0.9375 -2.0703 -1.4063 -3.3691 -1.4063 c-1.3184 0 -2.4414 0.46875 -3.3691 1.4063 s-1.3965 2.0605 -1.3965 3.3691 c0 1.3184 0.46875 2.4414 1.3965 3.3691 s2.0508 1.3965 3.3691 1.3965 c1.0352 0 1.9629 -0.29297 2.7734 -0.88867 s1.3867 -1.3574 1.7188 -2.2852 l-4.502 0 l0 -3.1738 l4.502 0 l1.8457 0 l1.4453 0 c0.10742 0.49805 0.15625 1.0254 0.15625 1.582 c0 2.1875 -0.78125 4.0625 -2.3438 5.6152 s-3.4375 2.334 -5.625 2.334 s-4.0625 -0.78125 -5.6152 -2.334 s-2.334 -3.4277 -2.334 -5.6152 s0.78125 -4.0625 2.334 -5.625 s3.4277 -2.3438 5.6152 -2.3438 z M326.552734375 20 l0 -15.742 l3.1543 0 l0 15.742 l-3.1543 0 z M348.18359375 3.965 l9.4434 8.9941 l0 -8.7012 l3.1543 0 l0 16.035 l-9.4434 -9.0039 l0 8.7109 l-3.1543 0 l0 -16.035 z M379.2578125 3.965 l9.4434 8.9941 l0 -8.7012 l3.1543 0 l0 16.035 l-9.4434 -9.0039 l0 8.7109 l-3.1543 0 l0 -16.035 z M417.89058125 4.18 c2.1875 0 4.0625 0.78125 5.625 2.3438 s2.3438 3.4375 2.3438 5.625 s-0.78125 4.0625 -2.3438 5.6152 s-3.4375 2.334 -5.625 2.334 s-4.0625 -0.78125 -5.6152 -2.334 s-2.334 -3.4277 -2.334 -5.6152 s0.78125 -4.0625 2.334 -5.625 s3.4277 -2.3438 5.6152 -2.3438 z M417.89058125 7.353999999999999 c-1.3184 0 -2.4414 0.46875 -3.3691 1.4063 s-1.3965 2.0605 -1.3965 3.3691 c0 1.3184 0.46875 2.4414 1.3965 3.3691 s2.0508 1.3965 3.3691 1.3965 c1.3086 0 2.4316 -0.46875 3.3691 -1.3965 s1.4063 -2.0508 1.4063 -3.3691 c0 -1.3086 -0.46875 -2.4316 -1.4063 -3.3691 s-2.0605 -1.4063 -3.3691 -1.4063 z M456.25021875 4.257999999999999 l-7.0898 16.035 l-7.0703 -16.035 l0.625 0 l2.0703 0 l0.12695 0 l0.50781 0 l3.7305 8.584 l3.7305 -8.584 l0.66406 0 l2.7051 0 z M475.68358125 14.7949 l2.7832 0 l-1.3867 -3.2715 z M474.39458125 17.5781 l-0.019531 -0.0097656 c-0.35156 0.80078 -0.71289 1.5918 -1.0742 2.3926 l-3.3887 0 l7.1387 -15.996 l7.1582 15.996 l-3.3984 0 c-0.35156 -0.79102 -0.70313 -1.5918 -1.0547 -2.3828 l-5.3613 0 z M503.2324375 4.257999999999999 l3.1543 0 l3.9355 0 l0 3.1445 l-3.9355 0 l0 12.598 l-3.1543 0 l0 -12.598 l-3.9355 0 l0 -3.1445 l3.9355 0 z M528.603515625 20 l0 -15.742 l3.1543 0 l0 15.742 l-3.1543 0 z M557.792925 4.18 c2.1875 0 4.0625 0.78125 5.625 2.3438 s2.3438 3.4375 2.3438 5.625 s-0.78125 4.0625 -2.3438 5.6152 s-3.4375 2.334 -5.625 2.334 s-4.0625 -0.78125 -5.6152 -2.334 s-2.334 -3.4277 -2.334 -5.6152 s0.78125 -4.0625 2.334 -5.625 s3.4277 -2.3438 5.6152 -2.3438 z M557.792925 7.353999999999999 c-1.3184 0 -2.4414 0.46875 -3.3691 1.4063 s-1.3965 2.0605 -1.3965 3.3691 c0 1.3184 0.46875 2.4414 1.3965 3.3691 s2.0508 1.3965 3.3691 1.3965 c1.3086 0 2.4316 -0.46875 3.3691 -1.3965 s1.4063 -2.0508 1.4063 -3.3691 c0 -1.3086 -0.46875 -2.4316 -1.4063 -3.3691 s-2.0605 -1.4063 -3.3691 -1.4063 z M583.828125 3.965 l9.4434 8.9941 l0 -8.7012 l3.1543 0 l0 16.035 l-9.4434 -9.0039 l0 8.7109 l-3.1543 0 l0 -16.035 z M637.28516125 4.257999999999999 l3.3887 0 l2.9004 7.4219 l2.9004 -7.4219 l2.9004 7.4219 l2.8906 -7.4219 l3.3984 0 l-6.2891 16.035 l-2.9297 -7.8027 l-2.8711 7.8027 z M673.75 20 l0 -15.742 l3.1543 0 l0 15.742 l-3.1543 0 z M699.121109375 4.257999999999999 l3.1543 0 l3.9355 0 l0 3.1445 l-3.9355 0 l0 12.598 l-3.1543 0 l0 -12.598 l-3.9355 0 l0 -3.1445 l3.9355 0 z M724.4921875 4.257999999999999 l3.1543 0 l0 6.2988 l4.7168 0 l0 -6.2988 l3.1543 0 l0 15.742 l-3.1543 0 l0 -6.2988 l-4.7168 0 l0 6.2988 l-3.1543 0 l0 -15.742 z M776.767578125 20 l0 -4.7266 l0 -5.5078 l0 -5.5078 l3.1543 0 l2.3535 0 c1.5137 0 2.8125 0.53711 3.8965 1.6211 s1.6211 2.3828 1.6211 3.8965 s-0.53711 2.8125 -1.6211 3.8867 s-2.3828 1.6113 -3.8965 1.6113 l-2.3535 0 l0 4.7266 l-3.1543 0 z M779.921828125 12.1289 l2.3535 0.0097656 c0.6543 0 1.2109 -0.23438 1.6699 -0.69336 s0.69336 -1.0156 0.69336 -1.6699 c0 -0.64453 -0.23438 -1.2012 -0.69336 -1.6699 s-1.0156 -0.70313 -1.6699 -0.70313 l-2.3535 0 l0 2.3633 l0 2.3633 z M815.55696875 4.257999999999999 l3.1738 0 l0 6.3281 l0 3.1641 c0 1.748 -0.61523 3.2422 -1.8555 4.4824 s-2.7344 1.8555 -4.4727 1.8555 c-1.748 0 -3.2422 -0.61523 -4.4824 -1.8555 s-1.8555 -2.7344 -1.8555 -4.4824 l0 -3.1641 l0 -6.3281 l3.1738 0 l0 6.3281 l0 2.832 l0 0.32227 c0 0.86914 0.3125 1.6113 0.92773 2.2266 s1.3574 0.92773 2.2266 0.92773 c0.85938 0 1.6016 -0.3125 2.2266 -0.92773 s0.9375 -1.3574 0.9375 -2.2266 l0 -0.32227 l0 -2.832 l0 -6.3281 z M837.197265625 20 l-0.0097656 -15.762 l5.1172 0 c1.5137 0 3.0078 0.52734 4.0918 1.6113 s1.5234 2.0996 1.5234 3.6133 l0 0.48828 c0 1.1719 -0.33203 2.0313 -0.99609 2.9688 s-1.2207 1.2109 -2.2559 1.6016 l3.5547 5.4785 l-3.8477 0 l-4.0234 -6.1523 l0 6.1523 l-3.1543 0 z M840.341815625 11.8164 l2.2559 0.0097656 c0.6543 0 0.98633 -0.16602 1.4453 -0.625 s0.625 -0.98633 0.625 -1.6406 c0 -0.64453 -0.16602 -1.0742 -0.625 -1.543 s-1.2793 -0.63477 -1.9336 -0.63477 l-1.7676 0 l0 4.4336 z M866.6015625 20 l0 -4.7266 l0 -5.5078 l0 -5.5078 l3.1543 0 l2.3535 0 c1.5137 0 2.8125 0.53711 3.8965 1.6211 s1.6211 2.3828 1.6211 3.8965 s-0.53711 2.8125 -1.6211 3.8867 s-2.3828 1.6113 -3.8965 1.6113 l-2.3535 0 l0 4.7266 l-3.1543 0 z M869.7558125 12.1289 l2.3535 0.0097656 c0.6543 0 1.2109 -0.23438 1.6699 -0.69336 s0.69336 -1.0156 0.69336 -1.6699 c0 -0.64453 -0.23438 -1.2012 -0.69336 -1.6699 s-1.0156 -0.70313 -1.6699 -0.70313 l-2.3535 0 l0 2.3633 l0 2.3633 z M903.466753125 4.18 c2.1875 0 4.0625 0.78125 5.625 2.3438 s2.3438 3.4375 2.3438 5.625 s-0.78125 4.0625 -2.3438 5.6152 s-3.4375 2.334 -5.625 2.334 s-4.0625 -0.78125 -5.6152 -2.334 s-2.334 -3.4277 -2.334 -5.6152 s0.78125 -4.0625 2.334 -5.625 s3.4277 -2.3438 5.6152 -2.3438 z M903.466753125 7.353999999999999 c-1.3184 0 -2.4414 0.46875 -3.3691 1.4063 s-1.3965 2.0605 -1.3965 3.3691 c0 1.3184 0.46875 2.4414 1.3965 3.3691 s2.0508 1.3965 3.3691 1.3965 c1.3086 0 2.4316 -0.46875 3.3691 -1.3965 s1.4063 -2.0508 1.4063 -3.3691 c0 -1.3086 -0.46875 -2.4316 -1.4063 -3.3691 s-2.0605 -1.4063 -3.3691 -1.4063 z M934.179703125 16.8945 l-0.0097656 -0.019531 c0.86914 0 1.5918 -0.72266 1.5918 -1.5918 c0 -0.67383 -0.26367 -1.1035 -0.80078 -1.2988 c-1.1328 -0.41992 -0.85938 -0.32227 -1.9629 -0.70313 c-1.1621 -0.40039 -2.2363 -1.1914 -2.959 -2.1777 c-0.42969 -0.58594 -0.64453 -1.3086 -0.64453 -2.1777 c0 -1.3086 0.46875 -2.4316 1.4063 -3.3691 s2.0605 -1.4063 3.3789 -1.4063 c1.3086 0 2.4316 0.46875 3.3691 1.4063 s1.4063 2.0605 1.4063 3.3691 l-3.1738 0 c0 -0.85938 -0.72266 -1.582 -1.582 -1.582 c-0.86914 0 -1.5918 0.72266 -1.5918 1.5918 c0 0.56641 0.22461 0.99609 0.68359 1.2891 c0.9375 0.60547 0.83008 0.48828 1.9531 0.82031 c1.2109 0.35156 2.3047 1.1035 3.0566 2.0703 c0.43945 0.56641 0.66406 1.2988 0.66406 2.1875 c0 1.3184 -0.46875 2.4414 -1.4063 3.3789 s-2.0605 1.4063 -3.3691 1.4063 c-1.3184 0 -2.4414 -0.46875 -3.3789 -1.4063 s-1.4063 -2.0605 -1.4063 -3.3789 l3.1836 0 c0 0.87891 0.71289 1.5918 1.5918 1.5918 z M957.32421875 4.257999999999999 l9.4434 0 l0 3.1445 l-6.2891 0 l0 3.1543 l4.7168 0 l0 3.1445 l-4.7168 0 l0 3.1445 l6.2891 0 l0 3.1543 l-6.2891 0 l-3.1543 0 l0 -15.742 z"></path></g>
			</g>
		</svg>
	